<?xml version="1.0" encoding="UTF-8"?>
<!DOCTYPE svg PUBLIC "-//W3C//DTD SVG 1.1//EN" "http://www.w3.org/Graphics/SVG/1.1/DTD/svg11.dtd">
<!-- Creator: CorelDRAW X7 -->
<svg xmlns="http://www.w3.org/2000/svg" xml:space="preserve" width="420mm" height="297mm" version="1.1" style="shape-rendering:geometricPrecision; text-rendering:geometricPrecision; image-rendering:optimizeQuality; fill-rule:evenodd; clip-rule:evenodd"
viewBox="0 0 42000 29700"
 xmlns:xlink="http://www.w3.org/1999/xlink">
 <defs>
  <style type="text/css">
   <![CDATA[
    .str0 {stroke:#FEFEFE;stroke-width:61.74}
    .str1 {stroke:#9E1200;stroke-width:35.28}
    .fil2 {fill:#848688}
    .fil1 {fill:#9E1200}
    .fil0 {fill:white}
   ]]>
  </style>
 </defs>
 <g id="Layer_x0020_1">
  <metadata id="CorelCorpID_0Corel-Layer"/>
  <g id="_897826000">
   <path class="fil0" d="M13652 19649c-726,283 -306,1339 404,1086 701,-251 331,-1373 -404,-1086z"/>
   <path class="fil0" d="M20533 19649c-727,279 -307,1344 404,1085 701,-255 331,-1367 -404,-1085z"/>
   <path class="fil0" d="M5490 20080l1136 0c-146,-638 -1009,-618 -1136,0z"/>
   <path class="fil0" d="M197 20080l1135 0c-145,-638 -1008,-618 -1135,0z"/>
   <path class="fil0" d="M37814 20080l1136 0c-145,-638 -1009,-618 -1136,0z"/>
  </g>
  <g id="_902316368">
   <path class="fil1" d="M10000 13165c0,-151 14,-485 -1,-582 -26,-162 -305,-118 -473,-118l-2962 -2c-105,0 -210,4 -316,2 -288,-3 -243,101 -242,385l-1 3959c0,291 -65,424 257,424l170 0 2239 7c99,1 187,-1 243,-16 119,-32 140,-162 66,-235 -61,-61 -222,-45 -349,-45l-1976 -3c-202,0 -363,21 -362,-254l0 -3354c0,-111 3,-225 0,-335 -4,-129 19,-161 105,-219 73,-49 437,-28 591,-28l2241 -2c164,0 292,-28 400,61 97,79 94,248 87,404l2 3009c0,118 13,558 -24,613 -86,29 -130,-65 -167,-113l-1152 -1422c-93,-106 -166,-219 -258,-316 -33,-34 -86,-45 -143,-43l-183 4c-35,1 -63,7 -106,55 -36,42 -52,128 -52,217l2 817c1,123 -46,237 -151,267 -71,20 -312,19 -366,-15 -138,-86 -118,-305 -117,-501l0 -1874c0,-219 -25,-434 133,-511 32,-16 116,-25 213,-24l788 6c202,1 395,42 532,138 383,269 478,803 169,1157 -86,98 -329,150 -316,290 8,86 61,127 128,138 139,22 265,-77 365,-162 285,-239 374,-785 263,-1124 -92,-282 -315,-502 -592,-611 -142,-56 -328,-77 -530,-78l-901 -6c-214,-1 -428,3 -463,28 -134,94 -92,254 -92,476l-4 2524c0,179 -34,282 75,374 70,60 261,45 348,46 188,0 438,-8 607,-3 101,2 160,-41 201,-106 35,-55 16,-153 16,-241l-2 -751c-1,-70 14,-123 34,-133 72,-28 129,88 160,126l1208 1507c96,119 184,220 221,237 67,30 321,42 396,-25 68,-60 38,-343 38,-478l3 -3541z"/>
   <g>
    <g>
     <path class="fil2 str0" d="M35763 13676l-368 1102c-35,104 -272,835 -295,869 -30,-47 -556,-1660 -632,-1890 -29,-88 -47,-203 -153,-205 -109,-2 -125,119 -156,211l-270 807c-61,183 -120,359 -181,543 -52,156 -146,391 -177,541l-155 -443c-50,-149 -97,-293 -146,-438 -97,-294 -191,-587 -293,-884 -25,-76 -49,-150 -75,-227 -25,-73 -78,-147 -178,-96 -81,41 -62,121 -33,206l731 2197c25,74 39,159 115,178 144,35 173,-172 229,-341 34,-101 559,-1710 588,-1755 107,278 201,594 296,881l371 1109c23,69 71,138 166,100 68,-27 80,-113 105,-188l365 -1094c100,-301 195,-585 294,-883 40,-121 167,-364 20,-416 -108,-39 -144,44 -168,116z"/>
     <path class="fil2 str0" d="M30965 13764c621,-41 1119,427 1159,1000 45,628 -426,1138 -998,1175 -626,40 -1122,-433 -1161,-1005 -44,-625 424,-1133 1000,-1170zm1395 1141c11,-201 -31,-391 -96,-554 -72,-180 -145,-265 -256,-398 -100,-117 -240,-210 -381,-284 -762,-401 -1845,105 -1898,1115 -28,556 292,1036 733,1249 859,414 1845,-161 1898,-1128z"/>
     <path class="fil2 str0" d="M23225 14778l0 -982c148,0 767,-9 864,7 525,88 525,868 10,966 -99,19 -725,9 -874,9zm0 223c256,0 838,33 1036,-49 601,-248 611,-1018 72,-1302 -237,-125 -692,-81 -994,-81 -222,0 -350,-54 -349,189l0 2164c0,92 -10,175 56,213 73,42 151,0 171,-63 24,-77 8,-917 8,-1071z"/>
     <path class="fil2 str0" d="M28184 15906c0,-723 -3,-1446 1,-2168 0,-91 -6,-165 -88,-183 -90,-20 -144,41 -147,123 -7,171 0,360 0,533l0 1620c0,265 -37,302 238,302 359,0 718,0 1077,0 210,0 435,42 427,-121 -5,-95 -85,-107 -165,-106l-1343 0z"/>
     <path class="fil2 str0" d="M26082 15906c0,-723 -3,-1446 0,-2168 0,-91 -6,-165 -88,-183 -90,-20 -143,41 -147,123 -7,171 0,360 0,533l0 1620c0,265 -36,302 239,302l1348 0c90,0 160,-23 155,-121 -5,-95 -85,-107 -165,-106l-1342 0z"/>
     <path class="fil2 str0" d="M25134 16042c10,100 137,148 207,71 50,-55 30,-232 30,-322l0 -1419c0,-216 16,-496 0,-704 -10,-124 -143,-155 -211,-71 -48,58 -27,236 -27,322 0,204 -10,2014 1,2123z"/>
    </g>
    <g>
     <path class="fil1 str1" d="M21133 15758c-105,-232 -225,-464 -338,-699 -222,-461 -456,-924 -674,-1386 -29,-61 -55,-124 -140,-119 -85,5 -110,67 -110,152l1 2327c6,69 62,122 141,107 97,-18 96,-106 95,-166l0 -770c0,-258 -11,-805 2,-1028 89,158 158,344 246,503l613 1261c36,75 70,201 167,202 102,1 134,-126 171,-206 197,-417 416,-839 611,-1255l243 -496c1,-3 3,-3 5,-5 10,539 0,1135 0,1685 0,82 -31,315 147,274 38,-9 55,-35 77,-54 8,-248 1,-507 1,-755l0 -1499c0,-129 35,-269 -101,-277 -105,-6 -140,117 -176,193l-854 1766c-21,43 -41,81 -61,123 -11,22 -20,41 -30,62 -5,11 -11,24 -16,34 -7,13 0,3 -10,16l-10 10z"/>
     <path class="fil1 str1" d="M17979 13769c324,-50 656,94 826,251 26,24 51,39 75,66 62,70 122,144 171,232 145,262 180,601 76,886 -94,258 -249,448 -489,591 -109,64 -253,112 -404,132 -634,82 -1139,-409 -1199,-957 -37,-336 89,-632 243,-821 13,-15 24,-22 37,-37l101 -101c148,-133 355,-210 563,-242zm-1183 1125c19,287 93,514 254,730 139,188 317,340 552,436 543,223 1115,70 1500,-353 75,-82 174,-251 217,-353 172,-409 116,-935 -154,-1285 -95,-123 -207,-236 -339,-321 -560,-360 -1311,-241 -1715,243l-103 139c-43,69 -83,136 -114,213 -63,159 -111,358 -98,551z"/>
     <path class="fil1 str1" d="M14916 13769c324,-50 656,94 826,251 93,85 48,35 137,139 234,273 309,704 185,1045 -25,70 -50,125 -83,184 -166,293 -459,493 -810,539 -634,82 -1139,-409 -1199,-957 -37,-336 90,-633 243,-821l138 -138c148,-133 355,-210 563,-242zm-1183 1125c14,219 49,353 131,527 133,282 381,519 675,639 359,147 736,130 1082,-34 167,-80 299,-188 418,-319 202,-222 333,-592 317,-905 -15,-282 -79,-445 -205,-663l-202 -243c-34,-28 -54,-51 -89,-78 -106,-78 -179,-129 -311,-183 -542,-222 -1166,-45 -1501,356 -205,245 -336,574 -315,903z"/>
     <path class="fil1 str1" d="M11791 13799c84,-12 246,-3 340,-3 173,0 498,-23 642,46 251,121 353,422 212,685 -38,72 -101,133 -166,176 -70,46 -166,72 -270,72l-758 -1 0 -975zm-1 1199l692 -1c30,7 144,261 157,285l377 753c26,51 52,104 119,109 63,4 114,-43 124,-96 12,-60 -31,-122 -55,-168 -142,-282 -325,-629 -450,-902 38,-28 345,-86 488,-454 50,-126 57,-273 22,-411 -59,-229 -232,-417 -454,-500 -141,-52 -275,-43 -436,-43 -159,0 -318,0 -477,0 -159,0 -335,-42 -340,135 -7,314 0,640 0,955 0,119 -12,1360 12,1416 20,48 90,89 157,55 68,-34 65,-94 65,-182 0,-315 6,-637 -1,-951z"/>
    </g>
   </g>
  </g>
 </g>
</svg>
