<svg xmlns="http://www.w3.org/2000/svg" viewBox="0 0 210.75 229.38"><g id="Layer_2" data-name="Layer 2"><g id="Layer_1-2" data-name="Layer 1"><path d="M.08,114.63q0-55,0-109.92C0,1.54.07,0,4.23,0Q105.44.27,206.64,0c3.68,0,4.08,1,4.08,4.26q-.15,110.51,0,221c0,3.68-1,4.08-4.25,4.08q-101.22-.16-202.42,0c-3.68,0-4.09-1-4.08-4.25C.13,188.29.08,151.46.08,114.63Z" style="fill:#fefefe"/><path d="M34.43,116.19q0-34.59,0-69.19c0-8.5,1.25-9.78,9.77-9.78q57,0,114,0c8.56,0,9.56,1.08,9.56,9.87q0,69.18,0,138.37c0,3.7,1,8-4.12,9.75-5.4,1.82-11.94.25-15.32-3.95q-14.37-17.87-28.64-35.82c-5.18-6.48-10.32-13-15.52-19.46-.81-1-1.57-2.71-3-2.29-2,.57-1.16,2.61-1.17,4q-.09,13.37,0,26.74c.08,6.56-2.21,9.35-8.78,9.52-8.33.21-16.67.25-25,0-6.47-.19-9-3.14-9-9.53q0-47.65,0-95.33c0-6.88,2.18-9.3,9.11-9.82,16.06-1.2,32.15-.29,48.18.43a33,33,0,0,1,29.76,23.9c4,14.92-1.44,31.41-13,39.36a21.21,21.21,0,0,1-3.55,1.9c-3.81,1.62-7.53,1.5-9.54-2.5-1.91-3.82,1-6.08,3.91-8,15-9.76,16.06-28.54,2.35-39.91-5-4.19-11.08-5.49-17.34-5.64-10.08-.24-20.16,0-30.24-.16-4.46-.06-6.86,2.12-7.64,6.31a26.57,26.57,0,0,0-.41,4.63c0,24.42-.07,48.84,0,73.26,0,8.59,1.9,10.87,8.34,11.23,9.11.5,11.27-1.58,11.29-10.92,0-7.94,0-15.89,0-23.84,0-4.11-.24-8.91,4.8-10s10.16-1.83,14.27,3.36c12.93,16.39,26.18,32.53,39.3,48.78,2,2.4,3.89,4.82,5.79,7.26.83,1.07,1.6,2.68,3,2.31,1.93-.49,1.39-2.51,1.4-3.95.06-6.78,0-13.56,0-20.34q.07-48.84.16-97.67c0-8.52-2.67-11.29-11-11.3q-44.48,0-89,0c-10.83,0-11.79,1-11.79,12q0,57.27,0,114.54c0,9.35,1.26,10.6,10.8,10.6q34.32,0,68.62,0c1.74,0,3.49,0,5.23.15,3.12.28,5.25,2.16,5.28,5.15s-1.92,5-5.07,5.36c-7.53,1-15.1.49-22.65.47-20.92,0-41.84-.24-62.76-.38-9.35-.05-10.45-1.12-10.45-10.3Z" style="fill:#9e1200"/></g></g></svg>